<svg width="200" height="200" viewBox="0 0 200 200" fill="none" xmlns="http://www.w3.org/2000/svg">
<path fill-rule="evenodd" clip-rule="evenodd" d="M148.458 37.25C147.792 37.25 147.125 37.0833 146.542 36.75C130.542 28.5 116.708 25 100.125 25C83.6251 25 67.9585 28.9167 53.7085 36.75C51.7085 37.8333 49.2085 37.0833 48.0418 35.0833C46.9585 33.0833 47.7085 30.5 49.7085 29.4167C65.2085 21 82.2085 16.6667 100.125 16.6667C117.875 16.6667 133.375 20.5833 150.375 29.3333C152.458 30.4167 153.208 32.9167 152.125 34.9167C151.375 36.4167 149.958 37.25 148.458 37.25ZM29.2084 81C28.375 81 27.5417 80.75 26.7917 80.25C24.875 78.9167 24.4584 76.3333 25.7917 74.4167C34.0417 62.75 44.5417 53.5833 57.0417 47.1667C83.2084 33.6667 116.708 33.5833 142.958 47.0833C155.458 53.5 165.958 62.5833 174.208 74.1667C175.542 76 175.125 78.6667 173.208 80C171.292 81.3333 168.708 80.9166 167.375 79C159.875 68.5 150.375 60.25 139.125 54.5C115.208 42.25 84.625 42.25 60.7917 54.5833C49.4584 60.4167 39.9584 68.75 32.4584 79.25C31.7917 80.4167 30.5417 81 29.2084 81ZM78.3751 180.333C79.1251 181.167 80.2085 181.583 81.2918 181.583C82.3751 181.583 83.4585 181.167 84.3751 180.333C85.9585 178.667 85.9585 176.083 84.3751 174.417C77.9585 167.917 74.2918 163.833 68.9585 154.25C63.8751 145.25 61.2085 134.167 61.2085 122.167C61.2085 102 78.6251 85.5834 100.042 85.5834C121.458 85.5834 138.875 102 138.875 122.167C138.875 124.5 140.708 126.333 143.042 126.333C145.375 126.333 147.208 124.5 147.208 122.167C147.208 97.4167 126.042 77.25 100.042 77.25C74.0418 77.25 52.8751 97.4167 52.8751 122.167C52.8751 135.583 55.8751 148.083 61.6251 158.333C67.2085 168.417 71.1251 173.083 78.3751 180.333ZM141.042 166.167C131.125 166.167 122.375 163.667 115.208 158.75C102.792 150.333 95.3749 136.667 95.3749 122.167C95.3749 119.833 97.2083 118 99.5416 118C101.875 118 103.708 119.833 103.708 122.167C103.708 133.917 109.708 145 119.875 151.833C125.792 155.833 132.708 157.75 141.042 157.75C143.042 157.75 146.375 157.5 149.708 156.917C151.958 156.5 154.125 158 154.542 160.333C154.958 162.583 153.458 164.75 151.125 165.167C146.375 166.083 142.208 166.167 141.042 166.167ZM123.208 183.167C123.542 183.25 123.958 183.333 124.292 183.333C126.042 183.333 127.792 182.083 128.208 180.167C128.792 178 127.542 175.667 125.292 175.083C113.542 171.833 105.958 167.5 98.0417 159.667C87.9584 149.667 82.4584 136.333 82.4584 122.083C82.4584 113.167 90.2084 105.917 99.7917 105.917C109.375 105.917 117.125 113.167 117.125 122.083C117.125 135.583 128.625 146.583 142.792 146.583C156.958 146.583 168.458 135.583 168.458 122.083C168.458 86.0834 137.625 56.8334 99.7084 56.8334C72.7917 56.8334 48.2084 71.9167 37.1251 95.1667C33.3751 103.083 31.4584 112.167 31.4584 122.167C31.4584 133.417 33.4584 144.25 37.5417 155.167C38.2917 157.25 40.7084 158.417 42.8751 157.583C45.0417 156.833 46.1251 154.417 45.2917 152.25C40.2917 138.917 39.7084 128.667 39.7084 122.167C39.7084 113.5 41.3751 105.583 44.6251 98.8334C54.3751 78.4167 76.0417 65.2501 99.7084 65.2501C133.042 65.2501 160.125 90.7501 160.125 122.167C160.125 131.083 152.375 138.333 142.792 138.333C133.208 138.333 125.458 131.083 125.458 122.167C125.458 108.667 113.958 97.6667 99.7917 97.6667C85.6251 97.6667 74.1251 108.667 74.1251 122.167C74.1251 138.667 80.5417 154.083 92.2084 165.667C101.292 174.583 109.958 179.5 123.208 183.167Z" fill="#EB5757"/>
</svg>
